<svg xmlns="http://www.w3.org/2000/svg" width="110.925" height="29.7"><path data-name="Tracé 1174" d="M68.04 7.65a10.651 10.651 0 00-10.89 11.025A10.651 10.651 0 0068.04 29.7a10.661 10.661 0 0010.935-11.025A10.661 10.661 0 0068.04 7.65zm-57.285 4.86c2.565 0 4.545 1.71 5.04 4.68l4.545-4.59a8.923 8.923 0 00-8.235-4.95 7.851 7.851 0 00-6.525 3.285V0H0v29.25h5.13v-3.015a8.218 8.218 0 006.66 3.465 9.469 9.469 0 008.46-5.04l-4.455-4.5c-.5 2.97-2.385 4.68-5.04 4.68-3.06 0-5.175-2.3-5.175-6.165s2.25-6.165 5.175-6.165zm37.89.045a12.368 12.368 0 015.67 1.575V8.95a17.107 17.107 0 00-6.34-1.3 11.067 11.067 0 00-9.765 5.175l4.365 4.365c.535-2.7 2.65-4.635 6.07-4.635zm19.4 12.24c-2.925 0-5.265-2.34-5.265-6.12s2.25-6.12 5.265-6.12 5.31 2.34 5.31 6.12-2.3 6.12-5.315 6.12zm42.885-9.9c0-5.535-3.285-7.245-6.165-7.245a6.424 6.424 0 00-5.715 3.735 5.362 5.362 0 00-5.495-3.735 6.161 6.161 0 00-5.58 3.735V8.1h-5.13v21.15h5.58V15.525a2.963 2.963 0 012.925-2.88 2.755 2.755 0 012.835 3.06V29.25h5.4V15.525a3.042 3.042 0 013.015-2.88c1.575 0 2.745 1.035 2.745 3.375v13.23h5.58zM42.575 20.16l-4.46 4.41c1.935 3.285 5.58 5.13 9.945 5.13a14.085 14.085 0 006.3-1.44v-4.81a12.7 12.7 0 01-5.67 1.35 5.86 5.86 0 01-6.115-4.64z" fill="#2a2220"/></svg>