<svg id="Calque_2" data-name="Calque 2" xmlns="http://www.w3.org/2000/svg" viewBox="0 0 112 36"><defs><style>.cls-1{fill:#000000;}.cls-2{fill:#fff;}</style></defs><title>Logo2</title><rect class="cls-1" width="112" height="36"/><path class="cls-2" d="M68.32,10.54a10.46,10.46,0,0,0-10.7,10.83,10.72,10.72,0,1,0,21.45,0A10.47,10.47,0,0,0,68.32,10.54Zm0,16.85c-2.88,0-5-2.3-5-6s2.17-6,5-6,5.08,2.3,5.08,6S71.19,27.39,68.32,27.39Z"/><path class="cls-2" d="M104.94,10.54a6.31,6.31,0,0,0-5.62,3.67c-1.11-2.43-2.74-3.67-5.39-3.67a6.19,6.19,0,0,0-5.57,3.67V11h-5V31.76H88.8V18.28a3,3,0,0,1,3-2.83c1.42,0,2.65.93,2.79,3V31.76h5.31V18.28a3,3,0,0,1,3-2.83c1.5,0,2.79,1,2.79,3.31v13H111V17.66C111,12.22,107.77,10.54,104.94,10.54Z"/><path class="cls-2" d="M11.6,15c2.54,0,4.44,1.81,4.93,4.79l4.64-4.64a8.85,8.85,0,0,0-8.22-5,7.85,7.85,0,0,0-6.53,3.29v-11H.83V31.76H6v-3a8.23,8.23,0,0,0,6.67,3.47,9.49,9.49,0,0,0,8.38-5l-4.5-4.5c-.5,2.91-2.3,4.66-4.92,4.66-3.06,0-5.18-2.3-5.18-6.17S8.67,15,11.6,15Z"/><path class="cls-2" d="M43.38,22.21,38.9,26.68c1.82,3.52,5.49,5.52,10,5.52a13.85,13.85,0,0,0,6.19-1.42V26.06a12.46,12.46,0,0,1-5.57,1.33A5.76,5.76,0,0,1,43.38,22.21Z"/><path class="cls-2" d="M49.45,15.36A12.15,12.15,0,0,1,55,16.9V11.82a16.86,16.86,0,0,0-6.23-1.28,10.8,10.8,0,0,0-9.93,5.75l4.5,4.5C43.6,17.68,45.75,15.36,49.45,15.36Z"/></svg>